<svg width="20" height="19" viewBox="0 0 20 19" fill="none" xmlns="http://www.w3.org/2000/svg">
<path d="M0 4.26935V15.3244C0 16.3423 0.41841 17.247 1.08787 17.9539C1.75732 18.6324 2.62204 19 3.62622 19H9.09344V16.7098H3.62622C2.87308 16.7098 2.28731 16.0878 2.28731 15.3244V4.26935C2.28731 3.50595 2.87308 2.9122 3.62622 2.9122H9.09344V0.59375H3.62622C2.62204 0.59375 1.75732 0.989583 1.08787 1.66815C0.41841 2.375 0 3.25149 0 4.26935ZM5.99721 7.60565V12.0164C5.99721 12.5253 6.44351 12.9494 6.94561 12.9494H11.9944V16.4271C11.9944 16.7381 12.1618 16.9926 12.4407 17.1339C12.5523 17.1622 12.6639 17.1622 12.7197 17.1622C12.9149 17.1622 13.0823 17.1057 13.2218 16.9643L19.7768 10.3199C20.0837 10.0655 20.0558 9.55655 19.7768 9.27381L13.2218 2.65774C12.8312 2.23363 11.9944 2.4881 11.9944 3.16667V6.67262H6.94561C6.44351 6.67262 5.99721 7.09673 5.99721 7.60565Z" fill="#0B3275"/>
</svg>
