<svg width="21" height="21" viewBox="0 0 21 21" fill="none" xmlns="http://www.w3.org/2000/svg">
<path d="M11 11.5C11.8284 11.5 12.5 10.8284 12.5 10C12.5 9.17157 11.8284 8.5 11 8.5C10.1716 8.5 9.5 9.17157 9.5 10C9.5 10.8284 10.1716 11.5 11 11.5Z" fill="#17203F"/>
<path d="M20.8903 8.32L20.1003 5.8C20.015 5.50876 19.8719 5.23767 19.6796 5.00292C19.4872 4.76817 19.2496 4.57456 18.9808 4.43364C18.712 4.29272 18.4176 4.20737 18.1152 4.1827C17.8127 4.15802 17.5083 4.19451 17.2203 4.29L16.8803 4.4C16.6139 4.48805 16.3302 4.51039 16.0534 4.46511C15.7765 4.41984 15.5147 4.3083 15.2903 4.14L15.1803 4.06C14.9613 3.89237 14.7847 3.67562 14.6649 3.42723C14.545 3.17884 14.4852 2.90575 14.4903 2.63V2.35C14.4951 1.72202 14.2506 1.11779 13.8103 0.67C13.6009 0.458452 13.3517 0.290362 13.0771 0.175383C12.8025 0.0604042 12.508 0.000802192 12.2103 0H9.66028C9.04846 0.00790627 8.46453 0.257192 8.03563 0.693583C7.60673 1.12997 7.36759 1.71813 7.37028 2.33V2.57C7.36932 2.86027 7.30323 3.14663 7.17689 3.40796C7.05055 3.6693 6.86717 3.89895 6.64028 4.08L6.51028 4.18C6.25962 4.36962 5.96645 4.49516 5.65624 4.5457C5.34602 4.59624 5.02816 4.57025 4.73028 4.47C4.45669 4.37533 4.16674 4.33715 3.87798 4.35777C3.58921 4.3784 3.30763 4.4574 3.05028 4.59C2.78233 4.72299 2.54462 4.90969 2.35194 5.1385C2.15926 5.36731 2.01573 5.63333 1.93028 5.92L1.11028 8.52C0.920121 9.1062 0.968887 9.74374 1.24599 10.2942C1.52309 10.8447 2.00615 11.2636 2.59028 11.46H2.75028C3.01974 11.561 3.26158 11.7241 3.45619 11.9361C3.65079 12.148 3.79266 12.4029 3.87028 12.68L3.93028 12.84C4.04176 13.1461 4.07903 13.4743 4.03905 13.7977C3.99907 14.121 3.88297 14.4302 3.70028 14.7C3.3305 15.2036 3.17452 15.8328 3.26628 16.4508C3.35805 17.0688 3.69012 17.6256 4.19028 18L6.26028 19.57C6.65223 19.855 7.12571 20.0058 7.61028 20C7.73997 20.0127 7.87059 20.0127 8.00028 20C8.30038 19.9419 8.5855 19.8233 8.83824 19.6514C9.09098 19.4794 9.30603 19.2578 9.47028 19L9.70028 18.67C9.86162 18.4386 10.0751 18.2483 10.3235 18.1145C10.5719 17.9808 10.8483 17.9073 11.1303 17.9C11.4258 17.8927 11.7184 17.9604 11.9807 18.0968C12.243 18.2332 12.4665 18.4339 12.6303 18.68L12.7503 18.85C12.9208 19.1037 13.1414 19.3199 13.3986 19.4852C13.6558 19.6504 13.9441 19.7613 14.2457 19.8109C14.5474 19.8606 14.856 19.848 15.1526 19.7739C15.4492 19.6997 15.7274 19.5657 15.9703 19.38L18.0003 17.86C18.4802 17.4872 18.7994 16.945 18.8924 16.3444C18.9854 15.7438 18.8451 15.1304 18.5003 14.63L18.2403 14.25C18.0839 14.0084 17.9816 13.736 17.9401 13.4512C17.8987 13.1664 17.9192 12.8761 18.0003 12.6C18.0829 12.3044 18.2362 12.0334 18.4471 11.8104C18.6579 11.5874 18.9198 11.4191 19.2103 11.32L19.4103 11.25C19.989 11.0492 20.4669 10.6312 20.7431 10.0845C21.0193 9.53769 21.0721 8.90496 20.8903 8.32ZM11.0003 13.5C10.308 13.5 9.63136 13.2947 9.05578 12.9101C8.48021 12.5256 8.03161 11.9789 7.7667 11.3394C7.50179 10.6999 7.43248 9.99612 7.56753 9.31718C7.70258 8.63825 8.03592 8.01461 8.52541 7.52513C9.01489 7.03564 9.63853 6.7023 10.3175 6.56725C10.9964 6.4322 11.7001 6.50151 12.3397 6.76642C12.9792 7.03133 13.5258 7.47993 13.9104 8.0555C14.295 8.63108 14.5003 9.30777 14.5003 10C14.5003 10.9283 14.1315 11.8185 13.4752 12.4749C12.8188 13.1313 11.9285 13.5 11.0003 13.5Z" fill="#0B3275"/>
</svg>
