<svg width="39" height="39" viewBox="0 0 39 39" fill="none" xmlns="http://www.w3.org/2000/svg">
<path d="M19.5473 38.6904H19.4077C10.3787 38.6673 4.32833 36.7952 3.07172 35.6396C1.7453 34.4608 0 28.3591 0 19.3452C0 10.3544 1.7453 4.2296 3.07172 3.05086C4.32833 1.89523 10.402 0.0231126 19.4077 0H19.5473C28.5763 0.0231126 34.6267 1.89523 35.8833 3.05086C37.2097 4.2296 38.955 10.3544 38.955 19.3452C38.955 28.336 37.2097 34.4608 35.8833 35.6396C34.6267 36.8183 28.5763 38.6904 19.5473 38.6904Z" fill="url(#paint0_linear_16_625)"/>
<path d="M28.4601 20.5008L27.7154 11.4638H23.2242C23.2242 11.4638 19.8034 18.4207 19.5009 19.3683H19.4544L15.8474 11.4638H11.3329L10.5883 19.299L9.95996 27.2497H12.7059C13.8927 27.2497 14.3581 26.7412 14.4512 25.4931C14.4512 25.4931 14.9166 18.2127 14.8468 17.1495H14.8933L15.0329 17.6349C15.2191 18.282 17.7789 24.4993 17.7789 24.4993H21.1531C21.1531 24.4993 23.7129 18.3745 24.0387 17.1495H24.0852L24.4808 25.4931C24.5739 26.7412 25.0626 27.2497 26.2261 27.2497H28.972L28.4601 20.5008Z" fill="white"/>
<defs>
<linearGradient id="paint0_linear_16_625" x1="3.07588" y1="3.05698" x2="35.6623" y2="35.8662" gradientUnits="userSpaceOnUse">
<stop stop-color="#05C2FF"/>
<stop offset="1" stop-color="#0357EE"/>
</linearGradient>
</defs>
</svg>
